<svg xmlns="http://www.w3.org/2000/svg" xmlns:xlink="http://www.w3.org/1999/xlink" viewBox="0 0 104 104">
  <defs>
    <style>
      .cls-1 {
        fill: none;
      }

      .cls-2 {
        clip-path: url(#clip-path);
      }

      .cls-3 {
        fill: #086ca0;
      }

      .cls-4 {
        fill: #fff;
      }
    </style>
    <clipPath id="clip-path" transform="translate(0)">
      <rect class="cls-1" width="104" height="104"/>
    </clipPath>
  </defs>
  <title>icon circ wohnen soziales</title>
  <g id="Ebene_2" data-name="Ebene 2">
    <g id="Ebene_1-2" data-name="Ebene 1">
      <g class="cls-2">
        <g id="Oval-2">
          <g id="Gruppe_4" data-name="Gruppe 4">
            <path id="Pfad_7" data-name="Pfad 7" class="cls-3" d="M52,104a52,52,0,0,0,52-52h0A52,52,0,0,0,52,0h0a52,52,0,0,0,0,104" transform="translate(0)"/>
          </g>
        </g>
      </g>
      <path id="Pfad_17" data-name="Pfad 17" class="cls-1" d="M2,100.37H102V.37H2Z" transform="translate(0)"/>
      <g id="Gruppe_10" data-name="Gruppe 10">
        <g id="Gruppe_817" data-name="Gruppe 817">
          <rect id="Rechteck_1262" data-name="Rechteck 1262" class="cls-1" x="18.17" y="18.74" width="66.83" height="61.26"/>
          <path id="Pfad_721" data-name="Pfad 721" class="cls-4" d="M85,44.26,72.88,35l-8.66-6.62L51.59,18.74,18.17,44.26l5.25,6.88L27,48.39V80H76.15V48.39l3.59,2.75Z" transform="translate(0)"/>
        </g>
        <g id="Gruppe_818" data-name="Gruppe 818">
          <path id="Pfad_722" data-name="Pfad 722" class="cls-3" d="M58.38,45.84a13,13,0,0,1,1.34.08c2.9.27,6.25,2.93,6.66,8v1.69C66,60.5,62.32,66.5,51.59,74c-10.74-7.53-14.42-13.54-14.8-18.4V53.94c.4-5.09,3.76-7.75,6.66-8a12.8,12.8,0,0,1,1.34-.08c3.35,0,5,1.46,6.8,3.65,1.84-2.19,3.44-3.65,6.79-3.65" transform="translate(0)"/>
        </g>
      </g>
    </g>
  </g>
</svg>
