<svg xmlns="http://www.w3.org/2000/svg" viewBox="0 0 104.02 104">
  <defs>
    <style>
      .cls-1 {
        fill: #fff;
      }

      .cls-2 {
        fill: #086ca0;
      }
    </style>
  </defs>
  <title>icon circ kunst kultur freizeit</title>
  <g id="Ebene_2" data-name="Ebene 2">
    <g id="Ebene_1-2" data-name="Ebene 1">
      <g id="Gruppe_939" data-name="Gruppe 939">
        <g id="Gruppe_864" data-name="Gruppe 864">
          <path id="Pfad_753" data-name="Pfad 753" class="cls-1" d="M39.53,53.53A9.52,9.52,0,1,1,49.06,44,9.52,9.52,0,0,1,39.53,53.53Zm0-16.12a6.6,6.6,0,1,0,6.6,6.6,6.6,6.6,0,0,0-6.6-6.6Z"/>
        </g>
        <g id="Gruppe_865" data-name="Gruppe 865">
          <path id="Pfad_754" data-name="Pfad 754" class="cls-1" d="M65.42,53.53A9.52,9.52,0,1,1,75,44a9.53,9.53,0,0,1-9.53,9.52Zm0-16.12A6.6,6.6,0,1,0,72,44a6.6,6.6,0,0,0-6.59-6.6Z"/>
        </g>
        <g id="Gruppe_866" data-name="Gruppe 866">
          <path id="Pfad_755" data-name="Pfad 755" class="cls-1" d="M65.18,45.74H52.48a1.47,1.47,0,0,1-1.32-.83L44.32,30.74A1.46,1.46,0,0,1,45,28.79a1.43,1.43,0,0,1,.64-.15h12.7a1.46,1.46,0,0,1,1.31.83l6.84,14.17a1.46,1.46,0,0,1-.69,2,1.39,1.39,0,0,1-.63.15ZM53.4,42.8h9.44L57.42,31.57H48Z"/>
        </g>
        <g id="Gruppe_867" data-name="Gruppe 867">
          <path id="Pfad_756" data-name="Pfad 756" class="cls-1" d="M38.79,45.74a1.79,1.79,0,0,1-.6-.13,1.47,1.47,0,0,1-.72-1.94L46,24.86A1.46,1.46,0,0,1,47.35,24h3.42a1.47,1.47,0,0,1,.08,2.93H48.29l-8.15,18a1.49,1.49,0,0,1-1.34.86Z"/>
        </g>
        <g id="Gruppe_868" data-name="Gruppe 868">
          <path id="Pfad_757" data-name="Pfad 757" class="cls-1" d="M60.66,26.94H56.51a1.47,1.47,0,0,1,0-2.94h4.15a1.47,1.47,0,0,1,0,2.94Z"/>
        </g>
        <g id="Gruppe_869" data-name="Gruppe 869">
          <path id="Pfad_758" data-name="Pfad 758" class="cls-1" d="M52.54,45.19a1.46,1.46,0,0,1-1.36-2l5.31-13a1.47,1.47,0,0,1,2.72,1.11l-5.32,13a1.46,1.46,0,0,1-1.35.91Z"/>
        </g>
      </g>
      <path id="Pfad_928" data-name="Pfad 928" class="cls-2" d="M52,0A52,52,0,0,0,33.56,100.62c.82.31,1.65.6,2.48.87,1.47.48,3,.88,4.49,1.22.82.19,1.65.35,2.48.5l4.49.59c.82.07,1.65.12,2.48.15s1.35,0,2,0,1.64,0,2.46-.06,1.66-.1,2.48-.18c1.52-.14,3-.36,4.49-.63.83-.15,1.66-.32,2.48-.51,1.52-.36,3-.78,4.49-1.27.83-.28,1.66-.58,2.48-.9A52,52,0,0,0,52,0Z"/>
      <g id="Gruppe_962" data-name="Gruppe 962">
        <path id="Pfad_929" data-name="Pfad 929" class="cls-1" d="M36,78.65h4.49v24.06c.82.19,1.65.35,2.48.5V78.65h4.49v25.14c.82.07,1.65.13,2.48.16V78.65h4.49v25.29c.83,0,1.66-.1,2.48-.18V78.65h4.49v24.48c.83-.15,1.66-.33,2.48-.52v-24h4.49v22.7c.83-.28,1.66-.58,2.48-.9V78.65h5.52a1.23,1.23,0,0,0,1.24-1.24,1.25,1.25,0,0,0-1.24-1.24c-7.87,0-11.87-3.17-11.87-9.38a9.25,9.25,0,0,1,9.25-9.25h0a7.21,7.21,0,0,1,7.18,7.17,5.54,5.54,0,0,1-5.52,5.52,4.15,4.15,0,0,1-4.14-4.14,2.71,2.71,0,0,1,2.83-3,1.24,1.24,0,0,0,0-2.48,5.53,5.53,0,0,0-5.52,5.52,6.55,6.55,0,0,0,6.55,6.55h0a8,8,0,0,0,7.94-7.93,9.57,9.57,0,0,0-9.55-9.59H30.62A9.68,9.68,0,0,0,21,64.79a8,8,0,0,0,7.93,7.93,6.56,6.56,0,0,0,6.56-6.55h0a5.53,5.53,0,0,0-5.52-5.52,1.24,1.24,0,1,0,0,2.48h0A3.09,3.09,0,0,1,33,66.21h0v0a4.15,4.15,0,0,1-4.14,4.14,5.52,5.52,0,0,1-5.52-5.52,7.21,7.21,0,0,1,7.17-7.17,9.25,9.25,0,0,1,9.25,9.24c0,6.22-4,9.39-11.87,9.39a1.24,1.24,0,1,0,0,2.48h5.59v21.83c.82.31,1.65.6,2.48.87Zm6.29-11.8a11.7,11.7,0,0,0-4.62-9.24H66.5a11.42,11.42,0,0,0-4.76,9.25h0a10.82,10.82,0,0,0,4.55,9.38H37.72a10.82,10.82,0,0,0,4.56-9.39Z"/>
        <g id="Gruppe_939-2" data-name="Gruppe 939-2">
          <g id="Gruppe_864-2" data-name="Gruppe 864-2">
            <path id="Pfad_753-2" data-name="Pfad 753-2" class="cls-1" d="M39.13,53.25a9.53,9.53,0,1,1,9.52-9.52,9.53,9.53,0,0,1-9.52,9.52Zm0-16.12a6.6,6.6,0,1,0,6.59,6.6,6.59,6.59,0,0,0-6.59-6.6Z"/>
          </g>
          <g id="Gruppe_865-2" data-name="Gruppe 865-2">
            <path id="Pfad_754-2" data-name="Pfad 754-2" class="cls-1" d="M65,53.25a9.53,9.53,0,1,1,9.53-9.52A9.53,9.53,0,0,1,65,53.25Zm0-16.12a6.6,6.6,0,1,0,6.59,6.6A6.6,6.6,0,0,0,65,37.13Z"/>
          </g>
          <g id="Gruppe_866-2" data-name="Gruppe 866-2">
            <path id="Pfad_755-2" data-name="Pfad 755-2" class="cls-1" d="M64.77,45.45H52.07a1.47,1.47,0,0,1-1.32-.83L43.92,30.46a1.47,1.47,0,0,1,.68-2,1.56,1.56,0,0,1,.63-.14h12.7a1.45,1.45,0,0,1,1.32.83l6.84,14.16a1.47,1.47,0,0,1-.69,2,1.52,1.52,0,0,1-.63.14ZM53,42.52h9.44L57,31.29H47.57L53,42.52Z"/>
          </g>
          <g id="Gruppe_867-2" data-name="Gruppe 867-2">
            <path id="Pfad_756-2" data-name="Pfad 756-2" class="cls-1" d="M38.39,45.45a1.41,1.41,0,0,1-.6-.13,1.47,1.47,0,0,1-.73-1.94l8.55-18.8A1.47,1.47,0,0,1,47,23.72h3.42a1.47,1.47,0,0,1,.07,2.93H47.89L39.73,44.59a1.46,1.46,0,0,1-1.34.86Z"/>
          </g>
          <g id="Gruppe_868-2" data-name="Gruppe 868-2">
            <path id="Pfad_757-2" data-name="Pfad 757-2" class="cls-1" d="M60.26,26.65H56.1a1.47,1.47,0,0,1,0-2.93h4.16a1.47,1.47,0,0,1,0,2.93Z"/>
          </g>
          <g id="Gruppe_869-2" data-name="Gruppe 869-2">
            <path id="Pfad_758-2" data-name="Pfad 758-2" class="cls-1" d="M52.14,44.9a1.46,1.46,0,0,1-1.47-1.46,1.55,1.55,0,0,1,.11-.56l5.31-13A1.46,1.46,0,0,1,58.8,31L53.49,44a1.47,1.47,0,0,1-1.35.91Z"/>
          </g>
        </g>
      </g>
    </g>
  </g>
</svg>
