<svg xmlns="http://www.w3.org/2000/svg" xmlns:xlink="http://www.w3.org/1999/xlink" viewBox="0 0 104 104">
  <defs>
    <style>
      .cls-1 {
        fill: none;
      }

      .cls-2 {
        clip-path: url(#clip-path);
      }

      .cls-3 {
        fill: #086ca0;
      }

      .cls-4 {
        fill: #fff;
      }
    </style>
    <clipPath id="clip-path" transform="translate(0)">
      <rect class="cls-1" width="104" height="104"/>
    </clipPath>
  </defs>
  <title>icon circ integration</title>
  <g id="Ebene_2" data-name="Ebene 2">
    <g id="Ebene_1-2" data-name="Ebene 1">
      <g class="cls-2">
        <g id="Oval">
          <g id="Gruppe_2" data-name="Gruppe 2">
            <path id="Pfad_3" data-name="Pfad 3" class="cls-3" d="M52,104a52,52,0,0,0,52-52h0A52,52,0,0,0,52,0h0a52,52,0,0,0,0,104" transform="translate(0)"/>
          </g>
        </g>
      </g>
      <g id="Gruppe_9" data-name="Gruppe 9">
        <g id="Gruppe_786" data-name="Gruppe 786">
          <path id="Pfad_682" data-name="Pfad 682" class="cls-4" d="M73.2,67.62a2.87,2.87,0,0,0,0-4.07L52.81,43.16l-9.58,9.58a4.52,4.52,0,0,1-6.38,0L36.07,52a4.51,4.51,0,0,1,0-6.38L50.85,30.82A18.07,18.07,0,0,0,25.91,57l5,5,4.42-4.42A4.51,4.51,0,0,1,43,60.72a4.51,4.51,0,0,1,7,5.1c.21,0,.43,0,.64,0a4.52,4.52,0,0,1,3.8,7h.09A4.51,4.51,0,0,1,59,77.25a4.58,4.58,0,0,1-.3,1.64l.47.47a2.87,2.87,0,0,0,4.06-4.06L51.42,63.47a.82.82,0,0,1,0-1.16l.2-.2a.83.83,0,0,1,.58-.24h0a.78.78,0,0,1,.58.24L64.6,73.94a2.88,2.88,0,0,0,4.07-4.07L56.85,58.05a.83.83,0,0,1,0-1.17h0l.2-.2a.82.82,0,0,1,1.16,0L69.14,67.62A2.87,2.87,0,0,0,73.2,67.62Z" transform="translate(0)"/>
          <path id="Pfad_683" data-name="Pfad 683" class="cls-4" d="M57.47,80.67l-3.81,3.81a2.86,2.86,0,0,0,3.81-3.81Z" transform="translate(0)"/>
        </g>
        <g id="Gruppe_787" data-name="Gruppe 787">
          <path id="Pfad_684" data-name="Pfad 684" class="cls-4" d="M33.51,68.55a3,3,0,0,0,2-.84l.55-.55,4.43-4.42a2.87,2.87,0,1,0-4.06-4.07L32,63.09l-.55.56a2.87,2.87,0,0,0,0,4.06,2.92,2.92,0,0,0,2,.85Z" transform="translate(0)"/>
          <path id="Pfad_685" data-name="Pfad 685" class="cls-4" d="M56.53,75.22a2.87,2.87,0,0,0-2-.84,2.06,2.06,0,0,0-.26,0,2.76,2.76,0,0,0-1.77.82l-.09.08-4.06,4.07-.55.55a2.61,2.61,0,0,0-.51.72,2.85,2.85,0,0,0,3.86,3.85,2.72,2.72,0,0,0,.71-.51l.55-.55,4.07-4.06.09-.09A2.92,2.92,0,0,0,56.53,75.22Z" transform="translate(0)"/>
          <path id="Pfad_686" data-name="Pfad 686" class="cls-4" d="M44.36,79.41a3.09,3.09,0,0,0,2-.84L47,78,51,74l1.38-1.38.24-.24a2.87,2.87,0,0,0-4.06-4.07h0l-.25.25L47,69.89,42.88,74l-.55.55a2.88,2.88,0,0,0,2,4.91Z" transform="translate(0)"/>
          <path id="Pfad_687" data-name="Pfad 687" class="cls-4" d="M38.93,74a2.9,2.9,0,0,0,1.32-.33,2.72,2.72,0,0,0,.71-.51l.56-.55,6.2-6.21a2.87,2.87,0,0,0-4-4.12l-.06.06-6.2,6.2-.55.55a2.72,2.72,0,0,0-.51.71,2.88,2.88,0,0,0,1.21,3.87,2.82,2.82,0,0,0,1.33.33Z" transform="translate(0)"/>
          <path id="Pfad_688" data-name="Pfad 688" class="cls-4" d="M83.56,44.08A18.07,18.07,0,0,0,52.87,31.14c0,.05-.11.1-.16.16l-1.48,1.48-14,14a2.86,2.86,0,0,0,0,4.05l.78.78a2.78,2.78,0,0,0,2,.83,2.88,2.88,0,0,0,2-.85L51.65,42l.65-.65a.83.83,0,0,1,.58-.24,1.19,1.19,0,0,1,.26,0,.94.94,0,0,1,.32.19L73.63,61.5l4.64-4.64A17.93,17.93,0,0,0,83.56,44.08Z" transform="translate(0)"/>
        </g>
      </g>
    </g>
  </g>
</svg>
