<svg xmlns="http://www.w3.org/2000/svg" viewBox="0 0 104.02 104">
  <defs>
    <style>
      .cls-1 {
        fill: #086ca0;
      }

      .cls-2 {
        fill: #fff;
      }
    </style>
  </defs>
  <title>icon circ all posts</title>
  <g id="Ebene_2" data-name="Ebene 2">
    <g id="Ebene_1-2" data-name="Ebene 1">
      <path id="Pfad_928" data-name="Pfad 928" class="cls-1" d="M52,0A52,52,0,0,0,33.56,100.62c.82.31,1.65.6,2.48.87,1.47.48,3,.88,4.49,1.22.82.19,1.65.35,2.48.5l4.49.59c.82.07,1.65.12,2.48.15s1.35,0,2,0,1.64,0,2.46-.06,1.66-.1,2.48-.18c1.52-.14,3-.36,4.49-.63.83-.15,1.66-.32,2.48-.51,1.52-.36,3-.78,4.49-1.27.83-.28,1.66-.58,2.48-.9A52,52,0,0,0,52,0Z"/>
      <path id="Icon_map-map-pin" data-name="Icon map-map-pin" class="cls-2" d="M51.9,26.73A15.92,15.92,0,0,0,35.82,42.5c0,8.71,16.08,37.27,16.08,37.27S68,51.21,68,42.5A15.93,15.93,0,0,0,51.9,26.73Z"/>
    </g>
  </g>
</svg>
