<svg xmlns="http://www.w3.org/2000/svg" width="64" height="59" viewBox="0 0 64 59"><g><g><g><g><path d="M53.204 41.614a2.862 2.862 0 0 0 .841-2.033c0-.77-.299-1.49-.842-2.033L32.812 17.157l-9.582 9.58a4.492 4.492 0 0 1-3.195 1.324 4.463 4.463 0 0 1-3.18-1.308l-.783-.782c-1.754-1.754-1.749-4.616.014-6.38L30.853 4.823A17.94 17.94 0 0 0 18.686.107 17.96 17.96 0 0 0 5.904 5.4c-7.046 7.048-7.046 18.516.002 25.564l4.962 4.965 4.421-4.423a4.492 4.492 0 0 1 3.197-1.323c1.207 0 2.342.47 3.196 1.323a4.503 4.503 0 0 1 1.32 3.216 4.484 4.484 0 0 1 2.691-.894c1.208 0 2.343.47 3.196 1.325a4.487 4.487 0 0 1 1.073 4.672 4.497 4.497 0 0 1 3.835 1.274 4.53 4.53 0 0 1 .603 5.642c.032 0 .062-.004.093-.004a4.49 4.49 0 0 1 3.197 1.323 4.528 4.528 0 0 1 1.015 4.826l.473.473a2.852 2.852 0 0 0 2.032.843 2.877 2.877 0 0 0 2.033-4.907L31.42 37.473a.826.826 0 0 1-.001-1.164l.197-.197a.821.821 0 0 1 .582-.243.83.83 0 0 1 .583.242l11.822 11.823a2.86 2.86 0 0 0 2.033.842c.767 0 1.489-.3 2.033-.842a2.862 2.862 0 0 0 .841-2.033c0-.77-.299-1.49-.842-2.034L36.848 32.046a.824.824 0 0 1 0-1.164l.198-.197c.32-.32.84-.32 1.163 0l10.928 10.93a2.86 2.86 0 0 0 2.033.841c.767 0 1.49-.299 2.034-.842z"/></g><g><path d="M37.471 54.671l-3.806 3.806a2.846 2.846 0 0 0 3.24-.565 2.872 2.872 0 0 0 .566-3.24z"/></g></g><g><g><path d="M13.51 42.554c.47 0 .915-.122 1.32-.335.258-.134.501-.295.713-.507l.552-.553 4.424-4.423a2.879 2.879 0 0 0 0-4.066 2.862 2.862 0 0 0-2.034-.841c-.768 0-1.49.298-2.033.84l-4.42 4.423-.554.555a2.84 2.84 0 0 0-.508.71c-.211.407-.335.854-.335 1.322 0 .769.3 1.49.843 2.033a2.852 2.852 0 0 0 2.032.842z"/></g><g><path d="M36.527 49.223a2.869 2.869 0 0 0-2.034-.84c-.091 0-.178.018-.267.026a2.837 2.837 0 0 0-1.766.815l-.087.089-4.065 4.064-.55.55c-.215.214-.376.46-.508.718a2.87 2.87 0 0 0 .508 3.348 2.857 2.857 0 0 0 2.033.842c.467 0 .912-.122 1.315-.331.26-.135.505-.298.717-.511l.55-.55 4.065-4.064.09-.088a2.856 2.856 0 0 0 .813-1.767 2.863 2.863 0 0 0-.814-2.3z"/></g><g><path d="M24.364 53.41c.468 0 .912-.123 1.317-.334.259-.134.505-.297.717-.51l.55-.55 4.065-4.064 1.377-1.378.243-.243a2.88 2.88 0 0 0 0-4.068 2.86 2.86 0 0 0-2.033-.84c-.767 0-1.49.299-2.032.84l-.244.245-1.376 1.378-4.065 4.063-.551.551c-.215.214-.375.46-.507.716a2.87 2.87 0 0 0 .508 3.35 2.851 2.851 0 0 0 2.031.844z"/></g><g><path d="M18.937 47.982c.47 0 .914-.124 1.318-.333.259-.134.504-.297.715-.51l.552-.55 6.203-6.205a2.85 2.85 0 0 0 .843-2.034c0-.768-.298-1.49-.843-2.032a2.85 2.85 0 0 0-2.033-.843c-.768 0-1.49.3-2.032.843l-6.203 6.204-.552.551a2.802 2.802 0 0 0-.507.715 2.867 2.867 0 0 0 .507 3.352 2.852 2.852 0 0 0 2.032.842z"/></g><g><path d="M63.565 18.076c0-4.828-1.88-9.368-5.295-12.781A17.953 17.953 0 0 0 45.49 0 17.945 17.945 0 0 0 32.87 5.139c-.055.052-.11.102-.164.156l-1.48 1.48-13.978 13.98c-1.122 1.12-1.128 2.94-.013 4.053l.783.782c.54.54 1.237.826 2.017.826.768 0 1.488-.3 2.032-.843l9.58-9.58.65-.649c.16-.16.37-.24.58-.24a.84.84 0 0 1 .258.05c.118.039.23.097.323.19l20.174 20.152 4.638-4.639a17.954 17.954 0 0 0 5.294-12.78z"/></g></g></g></g></svg>