<svg xmlns="http://www.w3.org/2000/svg" xmlns:xlink="http://www.w3.org/1999/xlink" width="20.53" height="20.53" viewBox="0 0 20.53 20.53">
    <defs>
        <style>
            .cls-1,.cls-2{fill:#fff}.cls-2{fill-rule:evenodd}
        </style>
    </defs>
    <g id="Group_276" data-name="Group 276" transform="translate(-665.328 -288.969)">
        <path id="Path_372" d="M675.593 288.969a10.266 10.266 0 1 1-7.258 3.007 10.227 10.227 0 0 1 7.258-3.007zm6.69 3.575a9.454 9.454 0 1 0 2.774 6.69 9.41 9.41 0 0 0-2.774-6.69z" class="cls-1" data-name="Path 372"/>
        <path id="Path_373" d="M692.5 320.146v3.842h1.83v-5.234h-1.83zm7.8.216c-.12-.992-.573-1.608-1.912-1.608a1.633 1.633 0 0 0-1.536.708h-.024v-.708h-1.459v5.234h1.531v-2.6c0-.684.135-1.343.973-1.343s.9.78.9 1.391v2.547h1.57v-2.874a6.128 6.128 0 0 0-.043-.751zm-6.89-4.222a.915.915 0 1 0 .915.915.915.915 0 0 0-.915-.915z" class="cls-2" data-name="Path 373" transform="translate(-20.831 -20.83)"/>
    </g>
</svg>
