<svg xmlns="http://www.w3.org/2000/svg" xmlns:xlink="http://www.w3.org/1999/xlink" width="20.527" height="20.534" viewBox="0 0 20.527 20.534">
    <defs>
        <style>
            .cls-1,.cls-2{fill:#fff}.cls-2{fill-rule:evenodd}
        </style>
    </defs>
    <g id="Group_274" data-name="Group 274" transform="translate(-665.328 -165.915)">
        <path id="Path_368" d="M675.591 165.915a10.265 10.265 0 1 1-7.257 3.006 10.249 10.249 0 0 1 7.257-3.006zm6.688 3.575a9.461 9.461 0 1 0 2.773 6.695 9.425 9.425 0 0 0-2.773-6.695z" class="cls-1" data-name="Path 368"/>
        <path id="Path_369" d="M700.046 196.22a4.588 4.588 0 0 1-1.233.335 2.121 2.121 0 0 0 .949-1.177 4.381 4.381 0 0 1-1.37.517 2.159 2.159 0 0 0-3.723 1.443 2.2 2.2 0 0 0 .063.483 6.1 6.1 0 0 1-4.433-2.211 2.089 2.089 0 0 0 .659 2.825 2.078 2.078 0 0 1-.971-.262v.028a2 2 0 0 0 .147.762 2.144 2.144 0 0 0 1.58 1.307 2.116 2.116 0 0 1-.569.079 1.914 1.914 0 0 1-.4-.045 2.168 2.168 0 0 0 2.007 1.478 4.349 4.349 0 0 1-2.666.9c-.176 0-.341-.012-.517-.029a6.2 6.2 0 0 0 3.3.949 5.981 5.981 0 0 0 5.972-4.74 5.82 5.82 0 0 0 .142-1.279v-.273a4.444 4.444 0 0 0 1.068-1.1z" class="cls-2" data-name="Path 369" transform="translate(-19.215 -23.235)"/>
    </g>
</svg>
