<svg xmlns="http://www.w3.org/2000/svg" xmlns:xlink="http://www.w3.org/1999/xlink" width="20.53" height="20.529" viewBox="0 0 20.53 20.529">
    <defs>
        <style>
            .cls-1,.cls-2{fill:#fff}.cls-2{fill-rule:evenodd}
        </style>
    </defs>
    <g id="Group_273" data-name="Group 273" transform="translate(-565 -491)">
        <g id="Group_272" data-name="Group 272" transform="translate(565 491)">
            <path id="Path_366" d="M423.728 42.888a10.265 10.265 0 1 1-7.258 3.007 10.236 10.236 0 0 1 7.258-3.007zm6.69 3.575a9.461 9.461 0 1 0 2.774 6.69 9.433 9.433 0 0 0-2.774-6.69z" class="cls-1" data-name="Path 366" transform="translate(-413.463 -42.888)"/>
            <path id="Path_367" d="M448.4 72.244a5.264 5.264 0 0 0-10.519-.1 1.443 1.443 0 0 0-.012.227 5.219 5.219 0 0 0 .756 2.7l-.954 2.8 2.92-.925a5.283 5.283 0 0 0 7.813-4.579c0-.046-.006-.081-.006-.128zm-2.851 1.187c-.133-.064-.762-.378-.878-.425s-.209-.064-.3.07a5.524 5.524 0 0 1-.407.494c-.076.093-.152.1-.273.041a3.265 3.265 0 0 1-1.041-.64 3.805 3.805 0 0 1-.721-.879c-.07-.14-.012-.2.052-.273a1.527 1.527 0 0 0 .2-.221.226.226 0 0 0 .046-.058 1.238 1.238 0 0 0 .081-.151.2.2 0 0 0-.011-.221c-.023-.064-.285-.7-.4-.954s-.215-.215-.285-.215-.163-.011-.25-.011a.444.444 0 0 0-.343.163 1.379 1.379 0 0 0-.46 1.07 1.337 1.337 0 0 0 .076.431 2.856 2.856 0 0 0 .454.89 5.235 5.235 0 0 0 2.2 1.931c1.321.512 1.321.338 1.554.32a1.283 1.283 0 0 0 .873-.611 1.048 1.048 0 0 0 .07-.611.742.742 0 0 0-.244-.139zm-2.414 3.339a4.413 4.413 0 0 1-2.432-.727l-1.7.541.547-1.635a4.355 4.355 0 0 1-.843-2.577 3.486 3.486 0 0 1 .023-.425 4.43 4.43 0 0 1 8.82.081 3.363 3.363 0 0 1 .012.343 4.42 4.42 0 0 1-4.427 4.4z" class="cls-2" data-name="Path 367" transform="translate(-432.778 -62.247)"/>
        </g>
    </g>
</svg>
