<svg xmlns="http://www.w3.org/2000/svg" width="98.27" height="106.313" viewBox="0 0 98.27 106.313">
    <defs>
        <style>
            .cls-1,.cls-3{fill:none}.cls-2{clip-path:url(#clip-path)}.cls-3{stroke:#fff;stroke-linecap:round;stroke-linejoin:round}
        </style>
        <clipPath id="clip-path">
            <path id="Path_468" d="M0 60.259h98.27V-46.054H0z" class="cls-1" data-name="Path 468" transform="translate(0 46.054)"/>
        </clipPath>
    </defs>
    <g id="Group_415" data-name="Group 415" transform="translate(0 46.054)">
        <g id="Group_414" class="cls-2" data-name="Group 414" transform="translate(0 -46.054)">
            <g id="Group_413" data-name="Group 413" transform="translate(.808 .807)">
                <path id="Path_467" d="M18.944 2.944L33.838 40.01M-2.906 24.332L33.838 40.01M-3.229 54.9l37.067-14.89M8.694 101.754l8.855-23.918m40.635 23.918L49.939 78.06m-31.78-1.307L33.838 40.01m14.894 37.069L33.838 40.01m36.741 15.679L33.838 40.01M70.9 25.116L33.838 40.01M49.516 3.269L33.838 40.01m-40.243 5.3h-2.417a5.656 5.656 0 0 1-5.656-5.656 5.656 5.656 0 0 1 5.656-5.658h2.417A5.656 5.656 0 0 1-.75 39.65a5.656 5.656 0 0 1-5.655 5.656zM6.021 71.968H3.6a5.656 5.656 0 0 1-5.652-5.658A5.656 5.656 0 0 1 3.6 60.655h2.421a5.656 5.656 0 0 1 5.656 5.656 5.656 5.656 0 0 1-5.656 5.657zm28.624 14.038h-2.414a5.657 5.657 0 1 1 0-11.314h2.415a5.657 5.657 0 0 1 0 11.314zM7.244 20.375H4.827a5.656 5.656 0 0 1 0-11.311h2.417a5.656 5.656 0 0 1 0 11.311zM34.89 9.064h-2.414a5.657 5.657 0 1 1 0-11.314h2.414a5.657 5.657 0 0 1 0 11.314zm39.216 36.242h2.414a5.657 5.657 0 0 0 0-11.314h-2.414a5.657 5.657 0 1 0 0 11.314zM61.68 71.968h2.415a5.656 5.656 0 0 0 5.655-5.658 5.656 5.656 0 0 0-5.656-5.656H61.68a5.656 5.656 0 0 0-5.658 5.656 5.657 5.657 0 0 0 5.658 5.658zm-1.224-51.593h2.415a5.656 5.656 0 1 0 0-11.311h-2.415a5.656 5.656 0 1 0 0 11.311zm7.936-2.985a40.917 40.917 0 0 1 6.318 16.362M38.955-.826a41.032 41.032 0 0 1 21.69 9.481m-53.281 0a41.031 41.031 0 0 1 21.37-9.441M-6.629 33.3a40.916 40.916 0 0 1 6.02-15.566M-.865 62A40.921 40.921 0 0 1-6.8 45.712m32.549 34.717a41.016 41.016 0 0 1-17.8-8.46m51.527.471a40.981 40.981 0 0 1-18.29 8.193M74.768 46a40.949 40.949 0 0 1-6.076 16.281m-75.321 40.166h81.34" class="cls-3" data-name="Path 467" transform="translate(14.478 2.25)"/>
            </g>
        </g>
    </g>
</svg>
