<?xml version="1.0" encoding="iso-8859-1"?>
<!-- Generator: Adobe Illustrator 18.1.1, SVG Export Plug-In . SVG Version: 6.00 Build 0)  -->
<svg version="1.1" id="Capa_1" xmlns="http://www.w3.org/2000/svg" xmlns:xlink="http://www.w3.org/1999/xlink" x="0px" y="0px"
	 viewBox="0 0 492 492" style="enable-background:new 0 0 492 492;" xml:space="preserve">
<g>
	<g>
		<path style="fill:#010002;" d="M420,72C372,24,314,0,246,0S120,24,72,72S0,178,0,246s24,126,72,174s106,72,174,72s126-24,174-72
			s72-106,72-174S468,120,420,72z M390.5,390.5C358.833,422.167,321,441.333,277,448v-89h-62v89c-44-6.667-81.833-25.833-113.5-57.5
			S50.667,321,44,277h89v-62H44c6.667-44,25.833-81.833,57.5-113.5S171,50.667,215,44v89h62V44c44,6.667,81.833,25.834,113.5,57.5
			C422.167,133.167,441.333,171,448,215h-89v62h89C441.332,321,422.166,358.833,390.5,390.5z"/>
	</g>
</g>
<g>
</g>
<g>
</g>
<g>
</g>
<g>
</g>
<g>
</g>
<g>
</g>
<g>
</g>
<g>
</g>
<g>
</g>
<g>
</g>
<g>
</g>
<g>
</g>
<g>
</g>
<g>
</g>
<g>
</g>
</svg>
