<svg xmlns="http://www.w3.org/2000/svg" xmlns:xlink="http://www.w3.org/1999/xlink" id="e-remove" width="12.564" height="12.564" viewBox="0 0 12.564 12.564">
    <defs>
        <style>
            .cls-1{fill:#fff}
        </style>
    </defs>
    <path id="Path_9" d="M13.3 1.269a.868.868 0 0 0-1.256 0L7.282 6.026 2.526 1.269a.868.868 0 0 0-1.256 0 .868.868 0 0 0 0 1.256l4.756 4.757-4.757 4.757a.868.868 0 0 0 0 1.256.815.815 0 0 0 .628.269.815.815 0 0 0 .628-.269l4.757-4.756 4.757 4.761a.868.868 0 0 0 1.256 0 .868.868 0 0 0 0-1.256L8.539 7.282 13.3 2.526a.868.868 0 0 0 0-1.257z" class="cls-1" data-name="Path 9" transform="translate(-1 -1)"/>
</svg>
