<svg xmlns="http://www.w3.org/2000/svg" width="81.083" height="58.936" viewBox="0 0 81.083 58.936">
    <defs>
        <style>
            .cls-1,.cls-3{fill:none;stroke-width:2px}.cls-1{stroke:#707070}.cls-2{clip-path:url(#clip-path)}.cls-3{stroke:#fff;stroke-linecap:round;stroke-linejoin:round}
        </style>
        <clipPath id="clip-path">
            <path id="Path_586" d="M0 21.34h81.084V-37.6H0z" class="cls-1" data-name="Path 586" transform="translate(0 37.596)"/>
        </clipPath>
    </defs>
    <g id="Syombol" transform="translate(0 37.596)">
        <g id="Group_477" class="cls-2" data-name="Group 477" transform="translate(0 -37.596)">
            <g id="Group_476" data-name="Group 476" transform="translate(.549 .549)">
                <path id="Path_585" d="M7.648 10.968H-1.19m-9.689-1a5.881 5.881 0 0 1-2.594-4.882v-18.523a5.886 5.886 0 0 1 5.886-5.886H39.5a5.886 5.886 0 0 1 5.886 5.886v11.82M-1.19 10.968l-9.774 8.893V9.9m74.88 18.716a5.879 5.879 0 0 0 2.594-4.882V5.218a5.886 5.886 0 0 0-5.886-5.886H13.535a5.886 5.886 0 0 0-5.887 5.886v18.517a5.887 5.887 0 0 0 5.886 5.888h40.693m0 0L64 38.516v-9.962" class="cls-3" data-name="Path 585" transform="translate(13.474 19.323)"/>
            </g>
        </g>
    </g>
</svg>
