<svg xmlns="http://www.w3.org/2000/svg" xmlns:xlink="http://www.w3.org/1999/xlink" width="79.37" height="79.37" viewBox="0 0 79.37 79.37">
  <defs>
    <clipPath id="clip-path">
      <path id="Path_450" data-name="Path 450" d="M0,0H79.37V-79.37H0Z" fill="none"/>
    </clipPath>
    <clipPath id="clip-path-2">
      <path id="Path_452" data-name="Path 452" d="M39.685-79.37A39.686,39.686,0,0,0,0-39.685H0A39.686,39.686,0,0,0,39.685,0h0A39.686,39.686,0,0,0,79.37-39.685h0A39.686,39.686,0,0,0,39.685-79.37Z" fill="none"/>
    </clipPath>
  </defs>
  <g id="Group_388" data-name="Group 388" transform="translate(0 79.37)">
    <g id="Group_385" data-name="Group 385" clip-path="url(#clip-path)">
      <g id="Group_384" data-name="Group 384" transform="translate(39.685)">
        <path id="Path_449" data-name="Path 449" d="M0,0A39.686,39.686,0,0,0,39.685-39.685,39.685,39.685,0,0,0,0-79.37,39.685,39.685,0,0,0-39.685-39.685,39.686,39.686,0,0,0,0,0" fill="#004e80"/>
      </g>
    </g>
    <g id="Group_387" data-name="Group 387" clip-path="url(#clip-path-2)">
      <g id="Group_386" data-name="Group 386" transform="translate(44.534 -20.439)">
        <path id="Path_451" data-name="Path 451" d="M0,0A4.849,4.849,0,0,1-4.849,4.849,4.849,4.849,0,0,1-9.7,0,4.849,4.849,0,0,1-4.849-4.849,4.849,4.849,0,0,1,0,0ZM-10.184-4.45-11.492-5.9a4.608,4.608,0,0,1-1.053-4.192L-11.9-12.7l-4.041-.4-.936,6.657a4.609,4.609,0,0,0,1.26,3.854l4,4.116m-3.83-14.577c-.041-2.6.478-3.584,1.268-3.685s2.137-.157,1.971,1.507l-.247,2.476M.487-4.45,1.861-5.973a4.609,4.609,0,0,0,1.088-4.04l-.534-2.524L6.4-13.321l1.066,5.8A4.61,4.61,0,0,1,6.419-3.677l-4.5,5.2M5.912-13.225c-.2-2.587-.814-3.522-1.61-3.548s-2.142.045-1.82,1.686.48,2.442.48,2.442M8.146-30.373h7.565v22.06H8.426M-7.166-30.373h9.6M-17.193-8.313h-8.216v-22.06h11.72M2.972-8.313h-14.73M0-38.492A4.848,4.848,0,0,0-4.849-43.34,4.848,4.848,0,0,0-9.7-38.492a4.849,4.849,0,0,0,4.848,4.849A4.849,4.849,0,0,0,0-38.492Zm-9.124,5.356,0,.111a4.618,4.618,0,0,0,.316,1.6l2.39,5.5-3.8,1.424-3.657-6.984a4.61,4.61,0,0,1,.2-4.371l1.92-3.2m2.005,14.383c.624,2.519,1.378,3.342,2.168,3.238s2.106-.4,1.52-1.961-.873-2.331-.873-2.331M.487-34.041l1.67,1.85a3.316,3.316,0,0,1,1.182,2.716l-.031.612,4.061-.074.083-3.273a4.608,4.608,0,0,0-1.475-3.478l-4.1-3.8m5,10.559c.345,2.573-.054,3.615-.827,3.808s-2.1.407-2.134-1.265-.045-2.488-.045-2.488M-9.567-22.644v7.2h7.878v-9.617h-4.23" fill="none" stroke="#fff" stroke-linecap="round" stroke-linejoin="round" stroke-width="1"/>
      </g>
    </g>
  </g>
</svg>
