<svg id="Group_994" data-name="Group 994" xmlns="http://www.w3.org/2000/svg" width="64.271" height="62.805" viewBox="0 0 64.271 62.805">
  <g id="Group_851" data-name="Group 851" transform="translate(0 23.922)">
    <path id="Path_740" data-name="Path 740" d="M1393.9,418.873a2.417,2.417,0,0,1-1.029-.236,2.354,2.354,0,0,1-1.326-2.125v-6.483h-2.207a4.721,4.721,0,0,1-4.716-4.716V384.706a4.718,4.718,0,0,1,4.716-4.717h30.648a4.725,4.725,0,0,1,4.721,4.717v20.607a4.728,4.728,0,0,1-4.721,4.716h-14.078l-10.543,8.332a2.362,2.362,0,0,1-1.464.512Zm-4.563-34.166v20.607h4.563a2.36,2.36,0,0,1,2.355,2.361v3.974l7.368-5.828a2.421,2.421,0,0,1,1.465-.507h14.9V384.706Z" transform="translate(-1384.621 -379.99)"/>
  </g>
  <g id="Group_852" data-name="Group 852" transform="translate(24.186 0)">
    <path id="Path_741" data-name="Path 741" d="M1419.073,415.53a2.362,2.362,0,0,1-1.47-.507l-11.184-8.844a2.359,2.359,0,0,1,2.924-3.7l7.37,5.827v-3.969a2.355,2.355,0,0,1,2.36-2.361h4.563V381.368h-30.658v14.149a2.356,2.356,0,1,1-4.711,0V381.368a4.723,4.723,0,0,1,4.711-4.716h30.658a4.717,4.717,0,0,1,4.716,4.716v20.606a4.717,4.717,0,0,1-4.716,4.716h-2.207v6.483a2.344,2.344,0,0,1-1.331,2.12,2.259,2.259,0,0,1-1.025.236Z" transform="translate(-1388.266 -376.652)"/>
  </g>
</svg>
