<svg xmlns="http://www.w3.org/2000/svg" width="23.019" height="28" viewBox="0 0 23.019 28">
    <defs>
        <style>
            .cls-1{fill:#585858}
        </style>
    </defs>
    <g id="noun_Flag_407494_000000" transform="translate(-13 -4.987)">
        <g id="Group_264" data-name="Group 264" transform="translate(13 4.987)">
            <path id="Path_363" d="M36.019 7.806a1.4 1.4 0 0 0-.653-1.151 1.257 1.257 0 0 0-1.291-.031 10.016 10.016 0 0 1-1.7.7A9.03 9.03 0 0 1 30 7.588a8.237 8.237 0 0 1-2.613-.358 7.733 7.733 0 0 1-1.82-.793 21.334 21.334 0 0 0-2.255-1.011 10.549 10.549 0 0 0-3.406-.435 16.406 16.406 0 0 0-4.386.793l-.855.311a2.57 2.57 0 0 0-1.633 2.582L13 31.68a1.161 1.161 0 0 0 .389.918 1.24 1.24 0 0 0 .933.389 1.307 1.307 0 0 0 .933-.389 1.161 1.161 0 0 0 .389-.918V20.933a12.97 12.97 0 0 1 1.742-.747 8.813 8.813 0 0 1 2.52-.342 9.093 9.093 0 0 1 2.566.342 18.024 18.024 0 0 1 1.851.84 10.9 10.9 0 0 0 2.271 1.011 11.973 11.973 0 0 0 3.406.436 10.893 10.893 0 0 0 5.257-1.273 1.168 1.168 0 0 0 .762-1.135z" class="cls-1" data-name="Path 363" transform="translate(-13 -4.987)"/>
        </g>
    </g>
</svg>
