<svg xmlns="http://www.w3.org/2000/svg" width="61.923" height="63.122" viewBox="0 0 61.923 63.122">
  <g id="Lightbulb" transform="translate(-688.96 -244.371)">
    <g id="Group_912" data-name="Group 912" transform="translate(705.516 260.96)">
      <path id="Path_622" data-name="Path 622" d="M26.073,5.805a14.775,14.775,0,0,0-1.344-1.55h.007A14.488,14.488,0,1,0,5.793,26.082v5.8H5.8V43.634H8.7v2.9H20.289v-2.9h2.9V31.8h-.007V26.089A14.488,14.488,0,0,0,26.073,5.805ZM4.159,19.768a11.59,11.59,0,1,1,20.661,0h-.007a11.559,11.559,0,0,1-3.376,4.006l-1.159.869v1.884L8.687,28.99c-.007,0,.007-4.372,0-4.372s-1.224-.88-1.221-.891A11.763,11.763,0,0,1,4.159,19.768ZM20.292,38.277,8.7,40.74v-2.9L20.292,35.38ZM8.7,34.945V31.884l11.591-2.463v3.061Z" transform="translate(0 0)" fill="#fff"/>
    </g>
    <g id="Group_920" data-name="Group 920" transform="translate(-257.896 -259.814)">
      <g id="Group_913" data-name="Group 913" transform="translate(975.741 504.185)">
        <path id="Path_857" data-name="Path 857" d="M954.79,514.376a2.407,2.407,0,0,1-2.411-2.406V506.6a2.408,2.408,0,1,1,4.816,0v5.375a2.4,2.4,0,0,1-2.406,2.406Z" transform="translate(-952.38 -504.185)" fill="#fff"/>
      </g>
      <g id="Group_914" data-name="Group 914" transform="translate(961.416 507.848)">
        <path id="Path_858" data-name="Path 858" d="M954.742,514.353a2.4,2.4,0,0,1-2.087-1.2l-2.692-4.654a2.408,2.408,0,0,1,4.172-2.405l2.693,4.649a2.412,2.412,0,0,1-2.086,3.613Z" transform="translate(-949.641 -504.885)" fill="#fff"/>
      </g>
      <g id="Group_915" data-name="Group 915" transform="translate(950.845 518.17)">
        <path id="Path_859" data-name="Path 859" d="M954.679,514.366a2.4,2.4,0,0,1-1.2-.319l-4.654-2.688a2.412,2.412,0,0,1,2.411-4.178l4.654,2.7a2.4,2.4,0,0,1-1.208,4.487Z" transform="translate(-947.619 -506.859)" fill="#fff"/>
      </g>
      <g id="Group_916" data-name="Group 916" transform="translate(946.856 532.412)">
        <path id="Path_860" data-name="Path 860" d="M954.636,514.394h-5.375a2.405,2.405,0,0,1,0-4.811h5.375a2.405,2.405,0,1,1,0,4.811Z" transform="translate(-946.856 -509.583)" fill="#fff"/>
      </g>
      <g id="Group_917" data-name="Group 917" transform="translate(998.592 533.081)">
        <path id="Path_861" data-name="Path 861" d="M964.531,514.522h-5.375a2.405,2.405,0,1,1,0-4.811h5.375a2.405,2.405,0,1,1,0,4.811Z" transform="translate(-956.75 -509.711)" fill="#fff"/>
      </g>
      <g id="Group_918" data-name="Group 918" transform="translate(995.651 518.761)">
        <path id="Path_862" data-name="Path 862" d="M958.6,514.469a2.407,2.407,0,0,1-1.2-4.5l4.654-2.677a2.408,2.408,0,0,1,2.405,4.173l-4.659,2.677a2.319,2.319,0,0,1-1.2.324Z" transform="translate(-956.188 -506.972)" fill="#fff"/>
      </g>
      <g id="Group_919" data-name="Group 919" transform="translate(987.288 508.177)">
        <path id="Path_863" data-name="Path 863" d="M957,514.421a2.454,2.454,0,0,1-1.208-.314,2.415,2.415,0,0,1-.878-3.294l2.693-4.659a2.407,2.407,0,1,1,4.167,2.411l-2.687,4.659a2.4,2.4,0,0,1-2.086,1.2Z" transform="translate(-954.588 -504.948)" fill="#fff"/>
      </g>
    </g>
  </g>
</svg>
