<svg xmlns="http://www.w3.org/2000/svg" width="80" height="80" viewBox="0 0 80 80"><g><g><path fill="#0c6ca0" d="M39.685 79.74c21.917 0 39.685-17.768 39.685-39.685C79.37 18.137 61.602.37 39.685.37S0 18.137 0 40.055C0 61.972 17.768 79.74 39.685 79.74"/></g><g><g><g><path fill="#fff" d="M40.926 30.163h5.694v2.455h-5.694v6.451h-2.61v-6.45h-5.69v-2.456h5.694v-5.96h2.61v5.96z"/></g></g><g><path fill="#fff" d="M33.89 51.763V48.73l11.487-2.441v3.033zm11.487 3.303L33.89 57.507v-2.872l11.487-2.441zM29.388 36.72c-2.876-5.654-.625-12.571 5.03-15.447 5.654-2.879 12.571-.625 15.447 5.03a11.484 11.484 0 0 1 0 10.417h-.007a11.456 11.456 0 0 1-3.346 3.97l-1.149.862v1.867l-11.488 2.441c-.007 0 .008-4.333 0-4.333-.007 0-1.213-.872-1.21-.883a11.658 11.658 0 0 1-3.277-3.924zm21.719-13.839a14.644 14.644 0 0 0-1.332-1.536h.007c-5.6-5.611-14.693-5.618-20.304-.018-5.615 5.604-5.622 14.697-.018 20.308.484.485 1.001.933 1.547 1.343v5.747h.007v11.65h2.872v2.871h11.488v-2.872h2.872V48.643h-.007v-5.657c6.343-4.76 7.628-13.76 2.868-20.104z"/></g></g></g></svg>