<svg xmlns="http://www.w3.org/2000/svg" width="79.37" height="79.37" viewBox="0 0 79.37 79.37">
    <defs>
        <style>
            .cls-1,.cls-5,.cls-6{fill:none}.cls-2{clip-path:url(#clip-path)}.cls-3{fill:#2985ce}.cls-4{clip-path:url(#clip-path-2)}.cls-5,.cls-6{stroke:#fff;stroke-linecap:round;stroke-linejoin:round;stroke-width:.7px}.cls-6{stroke-miterlimit:10}
        </style>
        <clipPath id="clip-path">
            <path id="Path_382" d="M0 0h79.37v-79.37H0z" class="cls-1" data-name="Path 382"/>
        </clipPath>
        <clipPath id="clip-path-2">
            <path id="Path_397" d="M39.685-79.37A39.686 39.686 0 0 0 0-39.685 39.686 39.686 0 0 0 39.685 0 39.686 39.686 0 0 0 79.37-39.685 39.686 39.686 0 0 0 39.685-79.37z" class="cls-1" data-name="Path 397"/>
        </clipPath>
    </defs>
    <g id="Group_307" data-name="Group 307" transform="translate(0 79.37)">
        <g id="Group_291" class="cls-2" data-name="Group 291">
            <g id="Group_290" data-name="Group 290" transform="translate(39.685)">
                <path id="Path_381" d="M0 0a39.686 39.686 0 0 0 39.685-39.685A39.685 39.685 0 0 0 0-79.37a39.685 39.685 0 0 0-39.685 39.685A39.686 39.686 0 0 0 0 0" class="cls-3" data-name="Path 381"/>
            </g>
        </g>
        <g id="Group_306" class="cls-4" data-name="Group 306">
            <g id="Group_292" data-name="Group 292" transform="translate(18.843 -30.182)">
                <path id="Path_383" d="M0 0v-28.954s5.291 5.162 11.486-3.226c0 0 4.418 9.291 11.1 5.291 0 0 4.031 9.421 10.841 4.905 0 0 3.514 7.484 8.259 4.129V0z" class="cls-5" data-name="Path 383"/>
            </g>
            <g id="Group_293" data-name="Group 293" transform="translate(30.329 -62.361)">
                <path id="Path_384" d="M0 0v32.18" class="cls-5" data-name="Path 384"/>
            </g>
            <g id="Group_294" data-name="Group 294" transform="translate(33.838 -53.241)">
                <path id="Path_385" d="M0 0v1.15m0 3.787v1.149m0 3.788v1.149m0 3.787v1.15m0 3.787V20.9" class="cls-6" data-name="Path 385"/>
            </g>
            <g id="Group_295" data-name="Group 295" transform="translate(37.722 -53.241)">
                <path id="Path_386" d="M0 0v1.15m0 3.787v1.149m0 3.788v1.149m0 3.787v1.15m0 3.787V20.9" class="cls-6" data-name="Path 386"/>
            </g>
            <g id="Group_296" data-name="Group 296" transform="translate(41.607 -48.304)">
                <path id="Path_387" d="M0 0v1.15m0 3.787v1.149m0 3.788v1.149m0 3.787v1.15" class="cls-6" data-name="Path 387"/>
            </g>
            <g id="Group_297" data-name="Group 297" transform="translate(49.377 -48.304)">
                <path id="Path_388" d="M0 0v1.15m0 3.787v1.149m0 3.788v1.149m0 3.787v1.15" class="cls-6" data-name="Path 388"/>
            </g>
            <g id="Group_298" data-name="Group 298" transform="translate(53.262 -43.367)">
                <path id="Path_389" d="M0 0v1.15m0 3.787v1.149m0 3.788v1.149" class="cls-6" data-name="Path 389"/>
            </g>
            <g id="Group_299" data-name="Group 299" transform="translate(57.147 -43.367)">
                <path id="Path_390" d="M0 0v1.15m0 3.787v1.149m0 3.788v1.149" class="cls-6" data-name="Path 390"/>
            </g>
            <g id="Group_300" data-name="Group 300" transform="translate(45.492 -48.304)">
                <path id="Path_391" d="M0 0v1.15m0 3.787v1.149m0 3.788v1.149m0 3.787v1.15" class="cls-6" data-name="Path 391"/>
            </g>
            <g id="Group_301" data-name="Group 301" transform="translate(22.672 -53.241)">
                <path id="Path_392" d="M0 0v1.15m0 3.787v1.149m0 3.788v1.149m0 3.787v1.15m0 3.787V20.9" class="cls-6" data-name="Path 392"/>
            </g>
            <g id="Group_302" data-name="Group 302" transform="translate(26.557 -53.241)">
                <path id="Path_393" d="M0 0v1.15m0 3.787v1.149m0 3.788v1.149m0 3.787v1.15m0 3.787V20.9" class="cls-6" data-name="Path 393"/>
            </g>
            <g id="Group_303" data-name="Group 303" transform="translate(18.843 -28.586)">
                <path id="Path_394" d="M0 0v11.579" class="cls-5" data-name="Path 394"/>
            </g>
            <g id="Group_304" data-name="Group 304" transform="translate(60.527 -28.586)">
                <path id="Path_395" d="M0 0v11.579" class="cls-5" data-name="Path 395"/>
            </g>
            <g id="Group_305" data-name="Group 305" transform="translate(30.329 -28.586)">
                <path id="Path_396" d="M0 0v11.579" class="cls-5" data-name="Path 396"/>
            </g>
        </g>
    </g>
</svg>
