<svg xmlns="http://www.w3.org/2000/svg" xmlns:xlink="http://www.w3.org/1999/xlink" width="133.89" height="133.89" viewBox="0 0 133.89 133.89">
  <defs>
    <style>
      .cls-1, .cls-5 {
        fill: none;
      }

      .cls-2 {
        clip-path: url(#clip-path);
      }

      .cls-3 {
        fill: #004e80;
      }

      .cls-4 {
        clip-path: url(#clip-path-2);
      }

      .cls-5 {
        stroke: #fff;
        stroke-linecap: round;
        stroke-linejoin: round;
      }
    </style>
    <clipPath id="clip-path">
      <path id="Path_450" data-name="Path 450" class="cls-1" d="M0,54.52H133.89V-79.37H0Z" transform="translate(0 79.37)"/>
    </clipPath>
    <clipPath id="clip-path-2">
      <path id="Path_452" data-name="Path 452" class="cls-1" d="M66.945-79.37A66.946,66.946,0,0,0,0-12.425H0A66.946,66.946,0,0,0,66.945,54.52h0A66.946,66.946,0,0,0,133.89-12.425h0A66.946,66.946,0,0,0,66.945-79.37Z" transform="translate(0 79.37)"/>
    </clipPath>
  </defs>
  <g id="Icon" transform="translate(-808 -317.37)">
    <g id="Oval" class="cls-2" transform="translate(808 317.37)">
      <g id="Group_384" data-name="Group 384" transform="translate(0 0)">
        <path id="Path_449" data-name="Path 449" class="cls-3" d="M27.26,54.52A66.946,66.946,0,0,0,94.2-12.425,66.945,66.945,0,0,0,27.26-79.37,66.945,66.945,0,0,0-39.685-12.425,66.946,66.946,0,0,0,27.26,54.52" transform="translate(39.685 79.37)"/>
      </g>
    </g>
    <g id="Two_people_talking" data-name="Two people talking" class="cls-4" transform="translate(808 317.37)">
      <g id="Group_386" data-name="Group 386" transform="translate(32.261 26.301)">
        <path id="Path_451" data-name="Path 451" class="cls-5" d="M17.454,29.771a8.179,8.179,0,1,1-8.18-8.18A8.18,8.18,0,0,1,17.454,29.771ZM.274,22.264l-2.206-2.444a7.774,7.774,0,0,1-1.776-7.072l1.085-4.4-6.817-.682L-11.02,18.9a7.775,7.775,0,0,0,2.125,6.5l6.749,6.943M-8.606,7.75C-8.675,3.372-7.8,1.7-6.467,1.533s3.6-.265,3.325,2.542l-.417,4.177M18.275,22.264l2.318-2.569a7.775,7.775,0,0,0,1.835-6.815l-.9-4.258L28.251,7.3l1.8,9.776a7.776,7.776,0,0,1-1.768,6.493L20.694,32.34M27.427,7.461C27.082,3.1,26.053,1.52,24.711,1.476s-3.613.076-3.07,2.844.81,4.119.81,4.119M31.2-21.466H43.957V15.747H31.667M5.365-21.466H21.56M-11.549,15.747h-13.86V-21.466H-5.638M22.467,15.747H-2.381M17.454-35.162a8.178,8.178,0,0,0-8.18-8.178A8.178,8.178,0,0,0,1.1-35.162a8.18,8.18,0,0,0,8.178,8.18A8.18,8.18,0,0,0,17.454-35.162ZM2.062-26.127l0,.187a7.79,7.79,0,0,0,.533,2.7L6.63-13.957l-6.415,2.4L-5.954-23.337A7.776,7.776,0,0,1-5.62-30.71l3.239-5.4M1-11.851C2.054-7.6,3.326-6.213,4.658-6.388S8.211-7.055,7.223-9.7,5.75-13.629,5.75-13.629M18.275-27.653l2.817,3.121c1.38,1.528,2.1,2.525,1.994,4.582l-.052,1.032,6.851-.125.14-5.521a7.773,7.773,0,0,0-2.488-5.867L20.62-36.84m8.426,17.812c.582,4.34-.091,6.1-1.4,6.424s-3.549.687-3.6-2.134-.076-4.2-.076-4.2M1.315-8.428V3.713H14.6V-12.51H7.469" transform="translate(25.409 43.34)"/>
      </g>
    </g>
  </g>
</svg>
