<svg xmlns="http://www.w3.org/2000/svg" width="80.001" height="128.456" viewBox="0 0 80.001 128.456"><g transform="translate(0.004 -0.004)"><path d="M43.63,36.3H59.49v6.84H43.63V61.11H36.36V43.14H20.51V36.3H36.37V19.7h7.27V36.3Z" fill="#ffffff"/><path d="M71.99,16.02a40.792,40.792,0,0,0-3.71-4.28h.02A40,40,0,1,0,16,72V88.01h.02v32.45h8v8h32v-8h8V87.78H64V72.02A40,40,0,0,0,71.99,16.02ZM11.49,54.57a32,32,0,1,1,57.04,0h-.02a31.912,31.912,0,0,1-9.32,11.06l-3.2,2.4v5.2l-32,6.8c-.02,0,.02-12.07,0-12.07s-3.38-2.43-3.37-2.46A32.474,32.474,0,0,1,11.49,54.57Zm44.54,51.1-32,6.8v-8l32-6.8Zm-32-9.2V88.02l32-6.8v8.45Z" fill="#ffffff"/></g></svg>