<svg xmlns="http://www.w3.org/2000/svg" xmlns:xlink="http://www.w3.org/1999/xlink" viewBox="0 0 104 104"><defs><style>.cls-1{fill:none;}.cls-2{clip-path:url(#clip-path);}.cls-3{fill:#086ca0;}.cls-4{fill:#fff;}</style><clipPath id="clip-path" transform="translate(0)"><rect class="cls-1" width="104" height="104"/></clipPath></defs><title>icon circ KG</title><g id="Ebene_2" data-name="Ebene 2"><g id="Ebene_1-2" data-name="Ebene 1"><g class="cls-2"><g id="Oval-3"><g id="Gruppe_8" data-name="Gruppe 8"><path id="Pfad_15" data-name="Pfad 15" class="cls-3" d="M52,104a52,52,0,0,0,52-52h0A52,52,0,0,0,52,0h0a52,52,0,0,0,0,104" transform="translate(0)"/></g></g></g><g id="Gruppe_943" data-name="Gruppe 943"><g id="Gruppe_12-3" data-name="Gruppe 12-3"><path id="Pfad_739-5" data-name="Pfad 739-5" class="cls-4" d="M80.85,51.42H79.21V45.24a1,1,0,0,0-1-1.05H56.36a1,1,0,0,0-1,1.05V71.19a5.16,5.16,0,0,0,5.16,5.17H74a5.16,5.16,0,0,0,5.17-5.17V66.92h1.64a5.48,5.48,0,0,0,5.47-5.47V56.88A5.47,5.47,0,0,0,80.85,51.42Zm-3.74-5.13v1.4H57.41v-1.4Zm0,24.9A3.06,3.06,0,0,1,74,74.26H60.48a3.07,3.07,0,0,1-3.07-3.07V49.79h3a.85.85,0,0,0,0,.23V70.53a1,1,0,0,0,2.1,0V50a.85.85,0,0,0,0-.23h3.79a.85.85,0,0,0,0,.23V70.53a1.05,1.05,0,1,0,2.1,0V50a.85.85,0,0,0,0-.23h3.79A.85.85,0,0,0,72,50V70.53a1,1,0,0,0,2.1,0V50a.85.85,0,0,0,0-.23h3v21.4Zm7.11-9.74a3.37,3.37,0,0,1-3.37,3.37H79.21V53.52h1.64a3.37,3.37,0,0,1,3.37,3.37Z" transform="translate(0)"/></g><g id="Gruppe_13-3" data-name="Gruppe 13-3"><path id="Pfad_739-6" data-name="Pfad 739-6" class="cls-4" d="M23.05,62.06h1.64V55.88a1,1,0,0,1,1-1.05h21.8a1,1,0,0,1,1,1.05h0v26A5.16,5.16,0,0,1,43.42,87H29.86a5.17,5.17,0,0,1-5.17-5.16V77.56H23.05a5.48,5.48,0,0,1-5.47-5.47V67.53A5.48,5.48,0,0,1,23.05,62.06Zm3.74-5.13v1.4h19.7v-1.4Zm0,24.9a3.06,3.06,0,0,0,3.07,3.07H43.42a3.07,3.07,0,0,0,3.07-3.06V60.43h-3a.85.85,0,0,1,0,.23V81.17a1.05,1.05,0,0,1-2.1,0V60.66a1.64,1.64,0,0,1,0-.23H37.66a.85.85,0,0,1,0,.23V81.17a1,1,0,0,1-2.1,0V60.66a.85.85,0,0,1,0-.23H31.83a.85.85,0,0,1,0,.23V81.17a1,1,0,0,1-2.1,0V60.66a.85.85,0,0,1,0-.23h-3V81.84Zm-7.11-9.74a3.37,3.37,0,0,0,3.37,3.37h1.64V64.16H23.05a3.37,3.37,0,0,0-3.37,3.37Z" transform="translate(0)"/></g><g id="Gruppe_14-3" data-name="Gruppe 14-3"><g id="Gruppe_851-3" data-name="Gruppe 851-3"><path id="Pfad_740-3" data-name="Pfad 740-3" class="cls-4" d="M34.7,50.59a1.44,1.44,0,0,1-.58-.13,1.34,1.34,0,0,1-.75-1.2V45.58H32.12a2.67,2.67,0,0,1-2.68-2.67V31.23a2.67,2.67,0,0,1,2.68-2.67H49.48a2.68,2.68,0,0,1,2.68,2.67V42.91a2.68,2.68,0,0,1-2.68,2.67h-8l-6,4.72A1.33,1.33,0,0,1,34.7,50.59ZM32.11,31.23V42.91H34.7A1.34,1.34,0,0,1,36,44.24V46.5l4.17-3.3a1.33,1.33,0,0,1,.83-.29h8.44V31.23Z" transform="translate(0)"/></g><g id="Gruppe_852-3" data-name="Gruppe 852-3"><path id="Pfad_741-3" data-name="Pfad 741-3" class="cls-4" d="M62.31,37a1.33,1.33,0,0,1-.83-.29l-6.34-5a1.34,1.34,0,1,1,1.66-2.1L61,32.93V30.68a1.32,1.32,0,0,1,1.33-1.33H64.9V17.67H47.53v8a1.34,1.34,0,1,1-2.67,0v-8A2.67,2.67,0,0,1,47.53,15H64.9a2.68,2.68,0,0,1,2.67,2.67V29.35A2.68,2.68,0,0,1,64.9,32H63.65V35.7a1.33,1.33,0,0,1-.76,1.2,1.44,1.44,0,0,1-.58.13Z" transform="translate(0)"/></g></g></g></g></g></svg>