<svg xmlns="http://www.w3.org/2000/svg" width="79.37" height="79.37" viewBox="0 0 79.37 79.37">
    <defs>
        <style>
            .cls-1,.cls-5{fill:none}.cls-2{clip-path:url(#clip-path)}.cls-3{fill:#2985ce}.cls-4{clip-path:url(#clip-path-2)}.cls-5{stroke:#fff;stroke-linecap:round;stroke-linejoin:round;stroke-width:.7px}
        </style>
        <clipPath id="clip-path">
            <path id="Path_434" d="M0 0h79.37v-79.37H0z" class="cls-1" data-name="Path 434"/>
        </clipPath>
        <clipPath id="clip-path-2">
            <path id="Path_436" d="M39.685-79.37A39.686 39.686 0 0 0 0-39.685 39.686 39.686 0 0 0 39.685 0 39.686 39.686 0 0 0 79.37-39.685 39.686 39.686 0 0 0 39.685-79.37z" class="cls-1" data-name="Path 436"/>
        </clipPath>
    </defs>
    <g id="Group_356" data-name="Group 356" transform="translate(0 79.37)">
        <g id="Group_353" class="cls-2" data-name="Group 353">
            <g id="Group_352" data-name="Group 352" transform="translate(39.685)">
                <path id="Path_433" d="M0 0a39.686 39.686 0 0 0 39.685-39.685A39.685 39.685 0 0 0 0-79.37a39.685 39.685 0 0 0-39.685 39.685A39.686 39.686 0 0 0 0 0" class="cls-3" data-name="Path 433"/>
            </g>
        </g>
        <g id="Group_355" class="cls-4" data-name="Group 355">
            <g id="Group_354" data-name="Group 354" transform="translate(55.675 -44.354)">
                <path id="Path_435" d="M0 0a16.619 16.619 0 0 0-1.348-3.291l2.829-4.618-2.45-2.459-2.451-2.46-4.558 2.884a16.539 16.539 0 0 0-3.286-1.36l-1.265-5.275-3.471-.006-3.472-.006-1.185 5.27a16.594 16.594 0 0 0-3.291 1.348l-4.619-2.827-2.459 2.45-2.46 2.45 2.886 4.556a16.529 16.529 0 0 0-1.36 3.286l-5.275 1.266-.006 3.472-.007 3.472 5.271 1.185a16.559 16.559 0 0 0 1.348 3.291l-2.83 4.618 2.449 2.454 2.451 2.46L-24 19.281a16.588 16.588 0 0 0 3.286 1.36l1.266 5.275 3.472.006 3.472.006 1.185-5.27a16.585 16.585 0 0 0 3.29-1.348l4.619 2.83 2.459-2.451 2.459-2.451-2.883-4.557A16.588 16.588 0 0 0-.017 9.4l5.275-1.271.006-3.472.006-3.472zm-16.008 14.995A10.327 10.327 0 0 1-26.316 4.65 10.327 10.327 0 0 1-15.971-5.658 10.326 10.326 0 0 1-5.664 4.687a10.326 10.326 0 0 1-10.344 10.308z" class="cls-5" data-name="Path 435"/>
            </g>
        </g>
    </g>
</svg>
