<svg xmlns="http://www.w3.org/2000/svg" width="79.37" height="79.37" viewBox="0 0 79.37 79.37">
    <defs>
        <style>
            .cls-1{fill:#2985ce}.cls-2,.cls-5,.cls-6{fill:none}.cls-3{clip-path:url(#clip-path)}.cls-4{clip-path:url(#clip-path-2)}.cls-5,.cls-6{stroke:#fff;stroke-linecap:round;stroke-linejoin:round;stroke-width:.7px}.cls-6{stroke-miterlimit:10}
        </style>
        <clipPath id="clip-path">
            <path id="Path_399" d="M0 0h79.37v-79.37H0z" class="cls-1" data-name="Path 399"/>
        </clipPath>
        <clipPath id="clip-path-2">
            <path id="Path_426" d="M39.686-79.37A39.686 39.686 0 0 0 0-39.685 39.686 39.686 0 0 0 39.686 0 39.685 39.685 0 0 0 79.37-39.685 39.685 39.685 0 0 0 39.686-79.37z" class="cls-2" data-name="Path 426"/>
        </clipPath>
    </defs>
    <g id="Group_336" data-name="Group 336" transform="translate(0 79.37)">
        <g id="Group_309" class="cls-3" data-name="Group 309">
            <g id="Group_308" data-name="Group 308" transform="translate(39.685)">
                <path id="Path_398" d="M0 0a39.686 39.686 0 0 0 39.685-39.685A39.685 39.685 0 0 0 0-79.37a39.685 39.685 0 0 0-39.685 39.685A39.686 39.686 0 0 0 0 0" class="cls-1" data-name="Path 398"/>
            </g>
        </g>
        <g id="Group_335" class="cls-4" data-name="Group 335">
            <g id="Group_310" data-name="Group 310" transform="translate(31.856 -27.827)">
                <path id="Path_400" d="M0 0v-14.741h-7.7V0" class="cls-5" data-name="Path 400"/>
            </g>
            <g id="Group_311" data-name="Group 311" transform="translate(31.057 -42.804)">
                <path id="Path_401" d="M0 0v-6.1h-6.1V0" class="cls-5" data-name="Path 401"/>
            </g>
            <path id="Path_402" d="M24.719-53.368h6.573v-1.408h-6.573z" class="cls-5" data-name="Path 402"/>
            <g id="Group_312" data-name="Group 312" transform="translate(25.26 -53.202)">
                <path id="Path_403" d="M0 0v4.129" class="cls-5" data-name="Path 403"/>
            </g>
            <g id="Group_313" data-name="Group 313" transform="translate(30.66 -53.202)">
                <path id="Path_404" d="M0 0v4.129" class="cls-5" data-name="Path 404"/>
            </g>
            <g id="Group_314" data-name="Group 314" transform="translate(28.86 -53.202)">
                <path id="Path_405" d="M0 0v4.129" class="cls-5" data-name="Path 405"/>
            </g>
            <g id="Group_315" data-name="Group 315" transform="translate(27.06 -53.202)">
                <path id="Path_406" d="M0 0v4.129" class="cls-5" data-name="Path 406"/>
            </g>
            <g id="Group_316" data-name="Group 316" transform="translate(28.005 -44.271)">
                <path id="Path_407" d="M0 0a1.584 1.584 0 0 0 1.584-1.584A1.584 1.584 0 0 0 0-3.168a1.584 1.584 0 0 0-1.584 1.584A1.584 1.584 0 0 0 0 0z" class="cls-5" data-name="Path 407"/>
            </g>
            <g id="Group_317" data-name="Group 317" transform="translate(30.823 -54.942)">
                <path id="Path_408" d="M0 0c0-2.8-1.261-5.071-2.817-5.071S-5.634-2.8-5.634 0" class="cls-5" data-name="Path 408"/>
            </g>
            <g id="Group_318" data-name="Group 318" transform="translate(28.005 -60.179)">
                <path id="Path_409" d="M0 0v-6.436" class="cls-5" data-name="Path 409"/>
            </g>
            <g id="Group_319" data-name="Group 319" transform="translate(33.017 -27.497)">
                <path id="Path_410" d="M0 0h-9.707v14.74" class="cls-5" data-name="Path 410"/>
            </g>
            <g id="Group_320" data-name="Group 320" transform="translate(28.005 -38.967)">
                <path id="Path_411" d="M0 0v1.8m0 4.129v1.8" class="cls-6" data-name="Path 411"/>
            </g>
            <g id="Group_321" data-name="Group 321" transform="translate(27.547 -12.756)">
                <path id="Path_412" d="M0 0v-9.691l2.95-3.168 4.15-2.982h14.968l3.714 3.013 2.731 3.137V0" class="cls-5" data-name="Path 412"/>
            </g>
            <g id="Group_322" data-name="Group 322" transform="translate(27.656 -22.447)">
                <path id="Path_413" d="M0 0h28.3" class="cls-5" data-name="Path 413"/>
            </g>
            <g id="Group_323" data-name="Group 323" transform="translate(30.704 -25.571)">
                <path id="Path_414" d="M0 0h22.515" class="cls-5" data-name="Path 414"/>
            </g>
            <g id="Group_324" data-name="Group 324" transform="translate(36.068 -22.217)">
                <path id="Path_415" d="M0 0l1.42-3.354L5.735-6.38" class="cls-5" data-name="Path 415"/>
            </g>
            <g id="Group_325" data-name="Group 325" transform="translate(47.539 -22.217)">
                <path id="Path_416" d="M0 0l-1.42-3.354-4.315-3.026" class="cls-5" data-name="Path 416"/>
            </g>
            <g id="Group_326" data-name="Group 326" transform="translate(36.068 -22.217)">
                <path id="Path_417" d="M0 0v9.461" class="cls-5" data-name="Path 417"/>
            </g>
            <g id="Group_327" data-name="Group 327" transform="translate(47.523 -22.217)">
                <path id="Path_418" d="M0 0v9.461" class="cls-5" data-name="Path 418"/>
            </g>
            <g id="Group_328" data-name="Group 328" transform="translate(30.606 -20.117)">
                <path id="Path_419" d="M0 0v3.727" class="cls-5" data-name="Path 419"/>
            </g>
            <g id="Group_329" data-name="Group 329" transform="translate(33.337 -20.117)">
                <path id="Path_420" d="M0 0v3.727" class="cls-5" data-name="Path 420"/>
            </g>
            <g id="Group_330" data-name="Group 330" transform="translate(50.765 -20.117)">
                <path id="Path_421" d="M0 0v3.727" class="cls-5" data-name="Path 421"/>
            </g>
            <g id="Group_331" data-name="Group 331" transform="translate(53.496 -20.117)">
                <path id="Path_422" d="M0 0v3.727" class="cls-5" data-name="Path 422"/>
            </g>
            <g id="Group_332" data-name="Group 332" transform="translate(38.202 -20.117)">
                <path id="Path_423" d="M0 0v3.727" class="cls-5" data-name="Path 423"/>
            </g>
            <g id="Group_333" data-name="Group 333" transform="translate(45.522 -20.117)">
                <path id="Path_424" d="M0 0v3.727" class="cls-5" data-name="Path 424"/>
            </g>
            <g id="Group_334" data-name="Group 334" transform="translate(41.804 -20.117)">
                <path id="Path_425" d="M0 0v7.361" class="cls-5" data-name="Path 425"/>
            </g>
        </g>
    </g>
</svg>
