<svg xmlns="http://www.w3.org/2000/svg" width="135.743" height="128.456" viewBox="0 0 135.743 128.456"><g transform="translate(-898.831 -258)"><path d="M1004.193,305.676H975.039a5.459,5.459,0,0,1-5.459-5.46V182.692a5.454,5.454,0,0,1,5.459-5.472h29.153a5.464,5.464,0,0,1,5.46,5.472V300.216a5.469,5.469,0,0,1-5.46,5.46ZM980.5,294.744H998.72V188.152H980.5V294.744Z" transform="translate(24.922 80.78)" fill="#ffffff"/><path d="M1000.174,243.946H971.022a5.471,5.471,0,0,1-5.472-5.46V188.359a5.463,5.463,0,0,1,5.472-5.46h29.152a5.461,5.461,0,0,1,5.461,5.46v50.127a5.469,5.469,0,0,1-5.461,5.46Zm-23.68-10.932H994.7V193.831H976.494v39.182Z" transform="translate(-18.884 142.51)" fill="#ffffff"/><path d="M996.143,266.469H966.991a5.479,5.479,0,0,1-5.472-5.46V186.287a5.471,5.471,0,0,1,5.472-5.46h29.152a5.471,5.471,0,0,1,5.472,5.46v74.721a5.479,5.479,0,0,1-5.472,5.46Zm-23.679-10.932h18.219V191.759H972.464v63.777Z" transform="translate(-62.688 119.988)" fill="#ffffff"/></g></svg>