<svg xmlns="http://www.w3.org/2000/svg" width="30" height="30" viewBox="0 0 30 30"><defs><style>.a{fill:#45aae1;}.b{fill:#fafafa;}</style></defs><g transform="translate(-788.159 -535)"><g transform="translate(-8.341 -7.375)"><circle class="a" cx="15" cy="15" r="15" transform="translate(796.5 542.375)"/><g transform="translate(775.376 528.13) rotate(-5)"><g transform="translate(25.994 24.33)"><path class="b" d="M25.994,40.53v7.854a.233.233,0,0,0,.233.233h3.939a.233.233,0,0,0,.233-.233V40.53a.233.233,0,0,0-.233-.233H26.227A.22.22,0,0,0,25.994,40.53Z" transform="translate(-25.994 -35.119)"/><path class="b" d="M52.2,32.141h0l-.093,2.028c0,.023-.513,2.1-.513,2.1l-.326,1.422a1.22,1.22,0,0,1-1.188.956H45.23a.35.35,0,0,1-.256-.093l-1.888-1.445c-.047-.023-.07-.047-.116-.047H41.944a.209.209,0,0,1-.21-.21V30.7a.209.209,0,0,1,.21-.209h.327a.2.2,0,0,0,.186-.14,4.551,4.551,0,0,1,2.377-2.913l.07-.07a16.214,16.214,0,0,0,1.562-2.773.438.438,0,0,1,.466-.256,1.705,1.705,0,0,1,1.282.909c.466.956-.07,2.33-.746,3.822a.215.215,0,0,0,.163.3l.4.046h0l2.61-.21h0a1.371,1.371,0,0,1,1.4,1.212Z" transform="translate(-36.63 -24.33)"/></g></g></g></g></svg>
