<svg xmlns="http://www.w3.org/2000/svg" width="67" height="62" viewBox="0 0 67 62"><g><g><g><path fill="#fff" d="M0 25.52l.003.002v-.004z"/></g><g><path fill="#fff" d="M33.42 0l-.008.006h.015z"/></g><g><path fill="#fff" d="M18.627 35.2c.4-5.086 3.757-7.745 6.654-8.02.476-.049.925-.074 1.34-.074 3.35 0 4.959 1.453 6.8 3.645 1.838-2.19 3.44-3.644 6.79-3.645.42 0 .865.026 1.34.073 2.9.277 6.252 2.936 6.658 8.02v1.691c-.38 4.868-4.056 10.87-14.791 18.4-10.736-7.532-14.415-13.533-14.791-18.4zm-9.773-5.548v31.606h49.13V29.652l3.59 2.75 5.257-6.879-12.12-9.252-8.66-6.624L33.429.005h-.016L.002 25.518v.004l5.252 6.88z"/></g><g><path fill="#fff" d="M40.21 27.107h.002z"/></g></g></g></svg>