<svg xmlns="http://www.w3.org/2000/svg" width="48" height="56" viewBox="0 0 48 56"><g><g><g><g><path fill="#fff" d="M1.894 56a2 2 0 0 1-1.415-3.417l8-8a2 2 0 0 1 2.828 2.828l-8 8A2.007 2.007 0 0 1 1.894 56z"/></g><g><path fill="#fff" d="M45.894 56a2 2 0 0 1-1.416-.585l-8-8a2 2 0 0 1 2.828-2.828l8 8A1.999 1.999 0 0 1 45.894 56z"/></g><g><path fill="#fff" d="M35.894 4a4 4 0 0 1 3.945 3.467l4 29.732a6 6 0 0 1-5.944 6.8H9.893a6 6 0 0 1-6-6c-.004-.268.01-.537.04-.804l4-29.736a4 4 0 0 1 3.96-3.46zm2 44c.453 0 .905-.03 1.354-.09 5.473-.739 9.312-5.773 8.574-11.247l-4-29.732A8.02 8.02 0 0 0 35.894 0h-24a8 8 0 0 0-7.916 6.927l-4 29.736c-.055.444-.084.89-.084 1.336 0 5.523 4.477 10 10 10h28z"/></g><g><path fill="#fff" d="M13.974 40a2 2 0 0 1 0-4.001h.04a2 2 0 1 1 0 4z"/></g><g><path fill="#fff" d="M33.975 40a2.001 2.001 0 0 1 0-4.001h.04a2 2 0 0 1 0 4z"/></g><g><path fill="#fff" d="M44.895 32H2.894a2 2 0 0 1 0-4h42a2 2 0 0 1 0 4z"/></g><g><path fill="#fff" d="M42.214 12H5.574a2 2 0 1 1 0-4h36.64a2 2 0 1 1 0 4z"/></g></g></g></g></svg>