<svg xmlns="http://www.w3.org/2000/svg" width="62" height="81" viewBox="0 0 62 81"><g><g><g><path fill="#fff" d="M21.27 43.853a11.698 11.698 0 0 0-4.622-9.246H45.49a11.438 11.438 0 0 0-4.761 9.25v.004a10.833 10.833 0 0 0 4.554 9.376H16.717a10.828 10.828 0 0 0 4.554-9.384zm-6.283 11.802h4.485v24.058c.821.185 1.649.35 2.484.496V55.655h4.485v25.138c.823.07 1.651.124 2.484.155V55.655h4.485v25.282c.834-.038 1.661-.1 2.484-.177V55.655h4.485v24.476a50.871 50.871 0 0 0 2.484-.519V55.655h4.485v22.691a52.358 52.358 0 0 0 2.484-.897V55.655h5.52a1.242 1.242 0 1 0 0-2.484c-7.866 0-11.868-3.174-11.868-9.384-.001-5.107 4.137-9.249 9.244-9.25h.007a7.214 7.214 0 0 1 7.176 7.176 5.536 5.536 0 0 1-5.52 5.52 4.153 4.153 0 0 1-4.14-4.14 2.7 2.7 0 0 1 2.829-3.032 1.242 1.242 0 0 0 0-2.484 5.536 5.536 0 0 0-5.52 5.52 6.553 6.553 0 0 0 6.549 6.555h.006a7.98 7.98 0 0 0 7.935-7.935 9.57 9.57 0 0 0-9.551-9.59H9.61c-5.328.014-9.644 4.33-9.66 9.66a7.98 7.98 0 0 0 7.935 7.934 6.552 6.552 0 0 0 6.555-6.549v-.006a5.536 5.536 0 0 0-5.52-5.52 1.242 1.242 0 1 0-.002 2.484h.002a3.09 3.09 0 0 1 3.1 3.084v.021a4.152 4.152 0 0 1-4.14 4.14 5.536 5.536 0 0 1-5.52-5.52 7.215 7.215 0 0 1 7.176-7.176 9.246 9.246 0 0 1 9.246 9.246c0 6.21-4 9.384-11.868 9.384a1.242 1.242 0 1 0 0 2.484h5.589v21.828c.819.31 1.647.602 2.484.872z"/></g><g><g><g><path fill="#fff" d="M18.122 14.13a6.601 6.601 0 0 1 6.594 6.6 6.594 6.594 0 1 1-6.594-6.6zm0 16.12a9.534 9.534 0 0 0 9.525-9.523c0-5.259-4.262-9.523-9.521-9.524a9.523 9.523 0 0 0-9.525 9.521 9.522 9.522 0 0 0 9.52 9.525z"/></g></g><g><g><path fill="#fff" d="M44.01 14.13a6.594 6.594 0 1 1 0 13.189 6.594 6.594 0 0 1 0-13.189zm0 16.12a9.535 9.535 0 0 0 9.528-9.523 9.523 9.523 0 1 0-9.528 9.522z"/></g></g><g><g><path fill="#fff" d="M31.988 19.521L26.565 8.287h9.442l5.426 11.234zm11.774 2.931a1.468 1.468 0 0 0 1.321-2.1L38.244 6.19a1.46 1.46 0 0 0-1.317-.83h-12.7a1.465 1.465 0 0 0-1.318 2.1l6.836 14.161c.243.51.757.833 1.321.831z"/></g></g><g><g><path fill="#fff" d="M17.384 22.452a1.465 1.465 0 0 1-1.329-2.068l8.551-18.808a1.463 1.463 0 0 1 1.337-.859h3.418a1.466 1.466 0 1 1 0 2.931h-2.479l-8.157 17.945a1.47 1.47 0 0 1-1.339.86z"/></g></g><g><g><path fill="#fff" d="M39.25 3.652h-4.153a1.466 1.466 0 0 1 0-2.93h4.153a1.467 1.467 0 0 1 0 2.93z"/></g></g><g><g><path fill="#fff" d="M31.128 21.901a1.465 1.465 0 0 1-1.359-2.017l5.315-13.006a1.464 1.464 0 1 1 2.711 1.107l-5.315 13.01a1.458 1.458 0 0 1-1.352.907z"/></g></g></g></g></g></svg>