<svg xmlns="http://www.w3.org/2000/svg" width="71" height="71" viewBox="0 0 71 71"><g><g><g><g><path d="M50.1 33.75l13.664 37.217a52.31 52.31 0 0 0 6.73-5.263l-12.757-34.7z"/></g><g><path d="M21.109 32.555l-7.636-2.749L0 65.743a52.204 52.204 0 0 0 6.735 5.251z"/></g><g><path d="M53.724 34h-37a2.5 2.5 0 1 1 0-5h37a2.5 2.5 0 1 1 0 5z"/></g><g><path d="M3.724 5V0h64v5z"/></g><g><path d="M16.724 34a2.5 2.5 0 0 1-2.5-2.5v-29a2.5 2.5 0 1 1 5 0v29a2.5 2.5 0 0 1-2.5 2.5z"/></g><g><path d="M53.724 34a2.5 2.5 0 0 1-2.5-2.5v-29a2.5 2.5 0 1 1 5 0v29a2.5 2.5 0 0 1-2.5 2.5z"/></g><g><g><path d="M44.6 21.633c.639-.639 1.515-.79 1.962-.344l17.766 17.766c.447.447.294 1.323-.344 1.962a1.457 1.457 0 0 1-1.962.348l-17.77-17.769c-.447-.447-.291-1.323.348-1.962z"/></g></g><g><g><path d="M43.844 39.466l18.585-18.585a1.713 1.713 0 0 1 2.31 2.31L46.154 41.774a1.715 1.715 0 0 1-2.308-2.309z"/></g></g><g><g><path d="M53.476 17.805a1.156 1.156 0 0 1 1.973.816v25.411a1.154 1.154 0 0 1-2.307 0v-25.41c-.001-.308.12-.6.338-.817z"/></g></g><g><g><path d="M40.088 30.47c.226-.229.534-.357.855-.356h26.7a1.213 1.213 0 1 1 .069 2.427h-26.77a1.215 1.215 0 0 1-.857-2.072z"/></g></g><g><g><path d="M45.943 39.778l-.002-.002c-4.612-4.613-4.611-12.09.002-16.702 4.612-4.612 12.09-4.61 16.7.002 4.613 4.612 4.612 12.09 0 16.702-4.616 4.602-12.085 4.602-16.7 0zm-2.311-19.01c-5.886 5.886-5.886 15.43 0 21.316 5.887 5.886 15.43 5.886 21.316 0 5.887-5.887 5.887-15.43 0-21.317-5.885-5.886-15.43-5.887-21.315 0z"/></g></g><g><g><path d="M7.6 21.633c.639-.639 1.515-.79 1.962-.344l17.766 17.766c.447.447.294 1.323-.344 1.962a1.457 1.457 0 0 1-1.962.348L7.252 23.596c-.447-.447-.291-1.323.348-1.962z"/></g></g><g><g><path d="M6.844 39.466l18.585-18.585a1.713 1.713 0 0 1 2.31 2.31L9.154 41.774a1.715 1.715 0 0 1-2.308-2.309z"/></g></g><g><g><path d="M16.476 17.805a1.156 1.156 0 0 1 1.973.816v25.411a1.154 1.154 0 0 1-2.307 0v-25.41c-.001-.307.12-.6.338-.817z"/></g></g><g><g><path d="M3.088 30.47c.226-.229.534-.357.855-.356h26.7a1.213 1.213 0 1 1 .069 2.427H3.942a1.215 1.215 0 0 1-.857-2.072z"/></g></g><g><g><path d="M8.944 39.778l-.002-.002c-4.612-4.613-4.611-12.09.002-16.702 4.612-4.612 12.09-4.61 16.7.002 4.613 4.612 4.612 12.09 0 16.702-4.616 4.602-12.085 4.602-16.7 0zm-2.312-19.01c-5.886 5.886-5.886 15.43 0 21.316 5.887 5.886 15.43 5.886 21.316 0 5.887-5.887 5.887-15.43 0-21.317-5.885-5.886-15.43-5.887-21.315 0z"/></g></g></g></g></g></svg>