<svg xmlns="http://www.w3.org/2000/svg" width="52" height="52" viewBox="0 0 52 52"><g><g><g><g><path fill="#fff" d="M8.898 43.1c-4.384-10.186-2.137-22.145 5.727-30.004 5.123-5.128 11.939-7.95 19.194-7.95 3.705 0 7.425.77 10.815 2.228 4.394 10.186 2.148 22.15-5.717 30.014-5.123 5.123-11.943 7.944-19.194 7.944-3.705 0-7.424-.77-10.825-2.232zm10.825 6.835c8.478 0 16.448-3.31 22.444-9.297 9.428-9.427 11.96-23.887 6.292-35.98-.23-.49-.62-.88-1.108-1.11a32.163 32.163 0 0 0-13.532-3c-8.484 0-16.458 3.295-22.45 9.287C1.954 19.262-.578 33.718 5.084 45.816c.22.49.625.879 1.104 1.108a32.033 32.033 0 0 0 13.536 3.011z"/></g></g><g><g><path fill="#fff" d="M8.349 44.807c-.295 0-.59-.11-.815-.334a1.16 1.16 0 0 1 0-1.628L45.563 4.817a1.16 1.16 0 0 1 1.627 0c.45.45.45 1.179 0 1.633L9.163 44.473c-.225.225-.52.334-.814.334z"/></g></g><g><g><path fill="#fff" d="M2.857 51.453a2.28 2.28 0 0 1-1.628-.679 2.29 2.29 0 0 1 0-3.245l4.23-4.23a2.3 2.3 0 0 1 3.244 3.256l-4.224 4.22c-.45.453-1.038.678-1.622.678z"/></g></g><g><g><g><path fill="#fff" d="M46.651 26.148h-.05l-17.82-.814a1.14 1.14 0 0 1-1.094-1.198c.03-.634.494-1.149 1.198-1.094l17.816.81a1.15 1.15 0 0 1-.05 2.296z"/></g></g><g><g><path fill="#fff" d="M40.325 37.342h-.06l-22.634-1.028a1.15 1.15 0 1 1 .11-2.297l22.63 1.029c.639.025 1.127.564 1.097 1.198a1.146 1.146 0 0 1-1.143 1.098z"/></g></g><g><g><path fill="#fff" d="M27.823 24.33a1.15 1.15 0 0 1-1.15-1.098L25.87 5.406a1.135 1.135 0 0 1 1.088-1.198l.04-.005c.62 0 1.139.484 1.169 1.098l.804 17.826a1.153 1.153 0 0 1-1.098 1.198l-.05.005z"/></g></g><g><g><path fill="#fff" d="M16.842 35.465c-.614 0-1.123-.48-1.148-1.099l-1.028-22.623a1.15 1.15 0 0 1 1.098-1.204h.04c.629 0 1.133.48 1.163 1.099l1.018 22.629a1.138 1.138 0 0 1-1.088 1.198h-.055z"/></g></g></g></g></g></svg>